<svg viewBox="0 0 23.3334 28.6666" xmlns="http://www.w3.org/2000/svg" xmlns:xlink="http://www.w3.org/1999/xlink" width="23.333374" height="28.666626" fill="none" customFrame="#000000">
	<g id="Сочетание 5">
		<path id="895" d="M2.33333 27.3094C1.92795 27.0754 1.59131 26.7387 1.35727 26.3333C1.12322 25.928 1 25.4681 1 25L1 3.66667C1 3.19857 1.12322 2.73872 1.35727 2.33334C1.59132 1.92795 1.92795 1.59132 2.33333 1.35727C2.73872 1.12322 3.19857 1 3.66667 1L14.3333 1C14.7554 0.99932 15.1734 1.08214 15.5634 1.2437C15.9533 1.40525 16.3074 1.64235 16.6053 1.94134L21.3893 6.72534C21.6891 7.02335 21.9269 7.3778 22.0889 7.76822C22.251 8.15864 22.334 8.5773 22.3333 9L22.3333 25C22.3333 25.4681 22.2101 25.928 21.9761 26.3333C21.742 26.7387 21.4054 27.0754 21 27.3094C20.5946 27.5435 20.1348 27.6667 19.6667 27.6667L3.66667 27.6667C3.19857 27.6667 2.73872 27.5435 2.33333 27.3094Z" fill-rule="nonzero" stroke="rgb(15,44,89)" stroke-linecap="round" stroke-linejoin="round" stroke-width="2" />
		<path id="896" d="M14.3334 1L14.3334 7.66667C14.3334 7.90072 14.395 8.13064 14.512 8.33333C14.629 8.53603 14.7973 8.70434 15 8.82137C15.2027 8.93839 15.4327 9 15.6667 9L22.3334 9" fill-rule="nonzero" stroke="rgb(15,44,89)" stroke-linecap="round" stroke-linejoin="round" stroke-width="2" />
		<path id="897" d="M9.00004 10.3334L6.33337 10.3334" stroke="rgb(15,44,89)" stroke-linecap="round" stroke-linejoin="round" stroke-width="2" />
		<path id="898" d="M17 15.6667L6.33337 15.6667" stroke="rgb(15,44,89)" stroke-linecap="round" stroke-linejoin="round" stroke-width="2" />
		<path id="899" d="M17 21.0001L6.33337 21.0001" stroke="rgb(15,44,89)" stroke-linecap="round" stroke-linejoin="round" stroke-width="2" />
		<rect id="path.[object SVGAnimatedString]" width="21.330000" height="27.000000" x="0.666687" y="1.333374" />
		<rect id="path.[object SVGAnimatedString]" width="8.000000" height="8.000000" x="13.666687" y="1.333374" />
	</g>
</svg>
