<svg viewBox="0 0 26 26" xmlns="http://www.w3.org/2000/svg" xmlns:xlink="http://www.w3.org/1999/xlink" width="26.000000" height="26.000000" fill="none" customFrame="#000000">
	<path id="880" d="M1.35727 23.6667C1.59131 24.0721 1.92795 24.4087 2.33333 24.6427C2.73872 24.8768 3.19857 25 3.66667 25L22.3333 25C22.8014 25 23.2613 24.8768 23.6667 24.6427C24.0721 24.4087 24.4087 24.0721 24.6427 23.6667C24.8768 23.2613 25 22.8014 25 22.3333L25 8.33333C25.0001 8.21374 24.9681 8.09631 24.9072 7.99335C24.8463 7.8904 24.7589 7.80572 24.6541 7.74818C24.5492 7.69064 24.4308 7.66237 24.3113 7.66633C24.1918 7.67028 24.0755 7.70632 23.9747 7.77067L18.0253 11.5627C17.9245 11.627 17.8083 11.6631 17.6887 11.667C17.5692 11.671 17.4508 11.6427 17.3459 11.5852C17.2411 11.5276 17.1537 11.4429 17.0928 11.34C17.0319 11.237 16.9999 11.1196 17 11L17 8.33333C17.0001 8.21374 16.9681 8.0963 16.9072 7.99335C16.8463 7.8904 16.7589 7.80572 16.6541 7.74818C16.5492 7.69064 16.4308 7.66237 16.3113 7.66633C16.1917 7.67028 16.0755 7.70632 15.9747 7.77067L10.0267 11.5627C9.92583 11.6274 9.80943 11.6637 9.68969 11.6678C9.56996 11.672 9.45132 11.6438 9.34626 11.5862C9.2412 11.5286 9.1536 11.4438 9.09266 11.3406C9.03173 11.2375 8.99972 11.1198 9 11L9 3.66667C9 3.19857 8.87678 2.73872 8.64273 2.33333C8.40869 1.92795 8.07205 1.59131 7.66667 1.35727C7.26128 1.12322 6.80143 1 6.33333 1L3.66667 1C3.19857 1 2.73872 1.12322 2.33333 1.35727C1.92795 1.59131 1.59131 1.92795 1.35727 2.33333C1.12322 2.73872 1 3.19857 1 3.66667L1 22.3333C1 22.8014 1.12322 23.2613 1.35727 23.6667Z" fill-rule="nonzero" stroke="rgb(15,44,89)" stroke-linecap="round" stroke-linejoin="round" stroke-width="2" />
</svg>
