<svg viewBox="0 0 22 22" xmlns="http://www.w3.org/2000/svg" xmlns:xlink="http://www.w3.org/1999/xlink" width="22.000000" height="22.000000" fill="none" customFrame="#000000">
	<path id="1035" d="M12.832 15.568C12.969 15.6309 13.1183 15.662 13.269 15.6591C13.4197 15.6561 13.5678 15.6191 13.7021 15.5509C13.8365 15.4826 13.9537 15.3849 14.045 15.265L14.4 14.8C14.5863 14.5516 14.8279 14.35 15.1056 14.2111C15.3833 14.0723 15.6895 14 16 14L19 14C19.3511 14 19.696 14.0924 20 14.2679C20.304 14.4435 20.5565 14.696 20.732 15C20.9076 15.304 21 15.6489 21 16L21 19C21 19.3511 20.9076 19.696 20.732 20C20.5565 20.304 20.304 20.5565 20 20.7321C19.696 20.9076 19.3511 21 19 21C15.8403 21 12.7363 20.1683 10 18.5885C7.26365 17.0086 4.99137 14.7363 3.41154 12C1.83171 9.26366 1 6.15966 1 3C1 2.64893 1.09241 2.30404 1.26795 2C1.44349 1.69596 1.69596 1.44349 2 1.26795C2.30404 1.09241 2.64893 1 3 1L6 1C6.35107 1 6.69596 1.09241 7 1.26795C7.30404 1.44349 7.55651 1.69596 7.73205 2C7.90759 2.30404 8 2.64893 8 3L8 6C8 6.31049 7.92771 6.61672 7.78885 6.89443C7.65 7.17214 7.44839 7.41371 7.2 7.6L6.732 7.951C6.61028 8.04394 6.51154 8.16359 6.44338 8.30073C6.37522 8.43787 6.33947 8.58883 6.33888 8.74197C6.3383 8.89511 6.37289 9.04634 6.44 9.184C7.11871 10.5625 8.01973 11.8199 9.10691 12.9057C10.1941 13.9916 11.4526 14.891 12.832 15.568L12.832 15.568Z" fill-rule="nonzero" stroke="rgb(15,44,89)" stroke-linecap="round" stroke-linejoin="round" stroke-width="2" />
</svg>
