<svg viewBox="0 0 14 14" xmlns="http://www.w3.org/2000/svg" xmlns:xlink="http://www.w3.org/1999/xlink" width="14.000000" height="14.000000" fill="none">
	<rect id="svg" width="14.000000" height="14.000000" x="0.000000" y="0.000000" />
	<path id="850" d="M8.06863 9.66467C8.14851 9.70136 8.23566 9.71952 8.32356 9.71779C8.41145 9.71606 8.49782 9.69448 8.5762 9.65468C8.65458 9.61487 8.72296 9.55787 8.77621 9.48792L8.98329 9.21667C9.09196 9.07178 9.23288 8.95417 9.39488 8.87317C9.55688 8.79217 9.73551 8.75 9.91663 8.75L11.6666 8.75C11.8714 8.75 12.0726 8.80391 12.25 8.90631C12.4273 9.00871 12.5746 9.15598 12.677 9.33334C12.7794 9.51069 12.8333 9.71188 12.8333 9.91667L12.8333 11.6667C12.8333 11.8715 12.7794 12.0726 12.677 12.25C12.5746 12.4274 12.4273 12.5746 12.25 12.677C12.0726 12.7794 11.8714 12.8333 11.6666 12.8333C9.82349 12.8333 8.01283 12.3482 6.41663 11.4266C4.82042 10.505 3.49493 9.17954 2.57336 7.58334C1.65179 5.98714 1.16663 4.17647 1.16663 2.33334C1.16663 2.12855 1.22053 1.92736 1.32293 1.75C1.42533 1.57265 1.5726 1.42537 1.74996 1.32298C1.92731 1.22058 2.1285 1.16667 2.33329 1.16667L4.08329 1.16667C4.28808 1.16667 4.48927 1.22058 4.66663 1.32298C4.84398 1.42537 4.99126 1.57265 5.09366 1.75001C5.19605 1.92736 5.24996 2.12855 5.24996 2.33334L5.24996 4.08334C5.24996 4.26446 5.20779 4.44309 5.12679 4.60509C5.04579 4.76709 4.92819 4.908 4.78329 5.01667L4.51029 5.22142C4.43929 5.27564 4.38169 5.34543 4.34193 5.42543C4.30217 5.50543 4.28132 5.59349 4.28097 5.68282C4.28063 5.77215 4.30081 5.86037 4.33996 5.94067C4.73587 6.74481 5.26147 7.47829 5.89566 8.11169C6.52985 8.74509 7.26399 9.26976 8.06863 9.66467L8.06863 9.66467Z" fill-rule="nonzero" stroke="rgb(15,44,89)" stroke-linecap="round" stroke-linejoin="round" stroke-width="1.16666663" />
	<rect id="path.[object SVGAnimatedString]" width="11.670000" height="12.000000" x="1.000000" y="1.000000" />
</svg>
