<svg viewBox="0 0 16.5032 16.5026" xmlns="http://www.w3.org/2000/svg" xmlns:xlink="http://www.w3.org/1999/xlink" width="16.503174" height="16.502563" fill="none" customFrame="#000000">
	<path id="987" d="M10.2938 15.6909C10.3577 15.7329 10.433 15.7544 10.5095 15.7525C10.586 15.7505 10.66 15.7252 10.7217 15.6799C10.7834 15.6347 10.8298 15.5716 10.8546 15.4992L15.7296 1.24923C15.7536 1.18277 15.7582 1.11086 15.7428 1.04189C15.7274 0.97293 15.6927 0.909773 15.6428 0.859811C15.5928 0.809849 15.5297 0.775149 15.4607 0.759771C15.3917 0.744394 15.3198 0.748975 15.2534 0.772978L1.00335 5.64798C0.930976 5.6728 0.867923 5.71916 0.822658 5.78086C0.777393 5.84255 0.752082 5.91661 0.750123 5.9931C0.748164 6.06959 0.76965 6.14485 0.811698 6.20877C0.853745 6.2727 0.914342 6.32223 0.985354 6.35073L6.93285 8.73573C7.12087 8.811 7.29169 8.92357 7.43503 9.06665C7.57836 9.20973 7.69124 9.38035 7.76685 9.56823L10.1519 15.5172C10.1803 15.5882 10.2299 15.6488 10.2938 15.6909Z" fill-rule="nonzero" stroke="rgb(255,255,255)" stroke-linecap="round" stroke-linejoin="round" stroke-width="1.5" />
</svg>
