<svg viewBox="0 0 18 22.0117" xmlns="http://www.w3.org/2000/svg" xmlns:xlink="http://www.w3.org/1999/xlink" width="18.000000" height="22.011658" fill="none" customFrame="#000000">
	<g id="Сочетание 13">
		<path id="1032" d="M9.601 20.8104C9.48604 20.8968 9.35379 20.9574 9.21327 20.9881C9.07274 21.0188 8.92726 21.0188 8.78673 20.9881C8.64621 20.9574 8.51396 20.8968 8.399 20.8104C6.539 19.2044 1 14.0044 1 9.01135C1 7.32192 1.53484 5.67585 2.52786 4.30907C3.52089 2.94229 4.92112 1.92496 6.52786 1.4029C8.13461 0.880836 9.86539 0.880836 11.4721 1.4029C13.0789 1.92496 14.4791 2.94229 15.4721 4.30907C16.4652 5.67585 17 7.32192 17 9.01135C17 14.0044 11.461 19.2044 9.601 20.8104Z" fill-rule="nonzero" stroke="rgb(15,44,89)" stroke-linecap="round" stroke-linejoin="round" stroke-width="2" />
		<circle id="1033" cx="9" cy="9.01135254" r="3" stroke="rgb(15,44,89)" stroke-linecap="round" stroke-linejoin="round" stroke-width="2" />
		<rect id="path.[object SVGAnimatedString]" width="16.000000" height="20.000000" x="1.000000" y="1.011353" />
		<rect id="circle.[object SVGAnimatedString]" width="6.000000" height="6.000000" x="6.000000" y="6.011353" />
	</g>
</svg>
