<svg viewBox="0 0 18.6667 29.3328" xmlns="http://www.w3.org/2000/svg" xmlns:xlink="http://www.w3.org/1999/xlink" width="18.666748" height="29.332764" fill="none" customFrame="#000000">
	<g id="Сочетание 10">
		<path id="916" d="M13.9694 15.8533L15.9894 27.2213C16.012 27.3551 15.9933 27.4927 15.9356 27.6156C15.8779 27.7385 15.7841 27.8409 15.6666 27.909C15.5492 27.9771 15.4138 28.0078 15.2785 27.9969C15.1432 27.986 15.0144 27.934 14.9094 27.8479L10.1361 24.2653C9.98319 24.1511 9.80757 24.071 9.62107 24.0305C9.43458 23.99 9.24157 23.99 9.05508 24.0305C8.86859 24.071 8.69296 24.1511 8.54008 24.2653L3.75874 27.8466C3.65384 27.9325 3.52522 27.9844 3.39007 27.9953C3.25491 28.0063 3.11964 27.9757 3.00229 27.9078C2.88495 27.8398 2.79111 27.7377 2.7333 27.615C2.67549 27.4924 2.65646 27.355 2.67874 27.2213L4.69741 15.8533" fill-rule="nonzero" stroke="rgb(15,44,89)" stroke-linecap="round" stroke-linejoin="round" stroke-width="2.66666675" />
		<circle id="917" cx="9.33337402" cy="9.33325195" r="8" stroke="rgb(15,44,89)" stroke-linecap="round" stroke-linejoin="round" stroke-width="2.66666675" />
		<rect id="path.[object SVGAnimatedString]" width="13.330000" height="12.000000" x="2.333374" y="15.666748" />
		<rect id="circle.[object SVGAnimatedString]" width="16.000000" height="16.000000" x="1.333374" y="1.666748" />
	</g>
</svg>
