<svg viewBox="0 0 28.6667 26" xmlns="http://www.w3.org/2000/svg" xmlns:xlink="http://www.w3.org/1999/xlink" width="28.666656" height="26.000000" fill="none" customFrame="#000000">
	<g id="Сочетание 2">
		<path id="861" d="M11.6667 13L17 13" stroke="rgb(15,44,89)" stroke-linecap="round" stroke-linejoin="round" stroke-width="2" />
		<path id="862" d="M11.6667 7.66675L17 7.66675" stroke="rgb(15,44,89)" stroke-linecap="round" stroke-linejoin="round" stroke-width="2" />
		<path id="863" d="M17 25L17 21C17 20.4369 16.8217 19.8882 16.4907 19.4326C16.1597 18.977 15.693 18.6379 15.1574 18.4639C14.6218 18.2899 14.0449 18.2899 13.5093 18.4639C12.9737 18.6379 12.507 18.977 12.1759 19.4326C11.8449 19.8882 11.6667 20.4369 11.6667 21L11.6667 25" fill-rule="nonzero" stroke="rgb(15,44,89)" stroke-linecap="round" stroke-linejoin="round" stroke-width="2" />
		<path id="864" d="M6.33333 10.3334L3.66667 10.3334C3.19857 10.3334 2.73872 10.4566 2.33333 10.6906C1.92795 10.9247 1.59131 11.2613 1.35727 11.6667C1.12322 12.0721 1 12.5319 1 13L1 22.3334C1 22.8015 1.12322 23.2613 1.35727 23.6667C1.59131 24.0721 1.92795 24.4087 2.33333 24.6428C2.73872 24.8768 3.19857 25 3.66667 25L25 25C25.4681 25 25.9279 24.8768 26.3333 24.6428C26.7387 24.4087 27.0754 24.0721 27.3094 23.6667C27.5434 23.2613 27.6667 22.8015 27.6667 22.3334L27.6667 9.00004C27.6667 8.53194 27.5434 8.07209 27.3094 7.66671C27.0754 7.26132 26.7387 6.92469 26.3333 6.69064C25.9279 6.45659 25.4681 6.33337 25 6.33337L22.3333 6.33337" fill-rule="nonzero" stroke="rgb(15,44,89)" stroke-linecap="round" stroke-linejoin="round" stroke-width="2" />
		<path id="865" d="M6.33331 25L6.33331 3.66667C6.33331 3.19857 6.45653 2.73872 6.69058 2.33333C6.92463 1.92795 7.26126 1.59131 7.66665 1.35727C8.07203 1.12322 8.53188 1 8.99998 1L19.6666 1C20.1347 1 20.5946 1.12322 21 1.35727C21.4054 1.59131 21.742 1.92795 21.976 2.33333C22.2101 2.73872 22.3333 3.19857 22.3333 3.66667L22.3333 25" fill-rule="nonzero" stroke="rgb(15,44,89)" stroke-linecap="round" stroke-linejoin="round" stroke-width="2" />
		<rect id="path.[object SVGAnimatedString]" width="5.330000" height="7.000000" x="11.333313" y="18.000000" />
		<rect id="path.[object SVGAnimatedString]" width="26.670000" height="19.000000" x="1.333313" y="6.000000" />
		<rect id="path.[object SVGAnimatedString]" width="16.000000" height="24.000000" x="6.333313" y="1.000000" />
	</g>
</svg>
