<svg viewBox="0 0 28.6667 23.3334" xmlns="http://www.w3.org/2000/svg" xmlns:xlink="http://www.w3.org/1999/xlink" width="28.666656" height="23.333374" fill="none" customFrame="#000000">
	<g id="Сочетание 4">
		<path id="886" d="M17 19.6667L17 3.66667C17 3.19857 16.8768 2.73872 16.6427 2.33333C16.4087 1.92795 16.0721 1.59131 15.6667 1.35727C15.2613 1.12322 14.8014 1 14.3333 1L3.66667 1C3.19857 1 2.73872 1.12322 2.33333 1.35727C1.92795 1.59131 1.59131 1.92795 1.35727 2.33333C1.12322 2.73872 1 3.19857 1 3.66667L1 18.3333C1 18.5674 1.06161 18.7973 1.17863 19C1.29566 19.2027 1.46397 19.371 1.66667 19.488C1.86936 19.6051 2.09928 19.6667 2.33333 19.6667L5 19.6667" fill-rule="nonzero" stroke="rgb(15,44,89)" stroke-linecap="round" stroke-linejoin="round" stroke-width="2" />
		<path id="887" d="M18.3333 19.6666L10.3333 19.6666" stroke="rgb(15,44,89)" stroke-linecap="round" stroke-linejoin="round" stroke-width="2" />
		<path id="888" d="M23.6667 19.6666L26.3333 19.6666C26.5674 19.6666 26.7973 19.605 27 19.488C27.2027 19.3709 27.371 19.2026 27.488 18.9999C27.6051 18.7972 27.6667 18.5673 27.6667 18.3333L27.6667 13.4666C27.6664 13.3164 27.6408 13.1673 27.5908 13.0256C27.5409 12.884 27.4673 12.7518 27.3733 12.6346L22.7333 6.83459C22.6086 6.67843 22.4504 6.55229 22.2704 6.46552C22.0904 6.37874 21.8932 6.33354 21.6933 6.33325L17 6.33325" fill-rule="nonzero" stroke="rgb(15,44,89)" stroke-linecap="round" stroke-linejoin="round" stroke-width="2" />
		<circle id="889" cx="20.999979" cy="19.666666" r="2.66666675" stroke="rgb(15,44,89)" stroke-linecap="round" stroke-linejoin="round" stroke-width="2" />
		<circle id="890" cx="7.66666698" cy="19.666666" r="2.66666675" stroke="rgb(15,44,89)" stroke-linecap="round" stroke-linejoin="round" stroke-width="2" />
		<rect id="path.[object SVGAnimatedString]" width="16.000000" height="19.000000" x="1.333313" y="0.666626" />
		<rect id="path.[object SVGAnimatedString]" width="10.670000" height="13.000000" x="17.333313" y="6.666626" />
		<rect id="circle.[object SVGAnimatedString]" width="5.330000" height="5.000000" x="18.333313" y="16.666626" />
		<rect id="circle.[object SVGAnimatedString]" width="5.330000" height="5.000000" x="5.333313" y="16.666626" />
	</g>
</svg>
