<svg viewBox="0 0 29.3335 26.6665" xmlns="http://www.w3.org/2000/svg" xmlns:xlink="http://www.w3.org/1999/xlink" width="29.333496" height="26.666504" fill="none" customFrame="#000000">
	<g id="Сочетание 11">
		<path id="919" d="M20 25.3333L20 22.6666C20 21.7304 19.7536 20.8107 19.2855 19.9999C18.8174 19.1891 18.1441 18.5159 17.3334 18.0478C16.5226 17.5797 15.6029 17.3333 14.6667 17.3333L6.66671 17.3333C5.73051 17.3333 4.81081 17.5797 4.00004 18.0478C3.18927 18.5159 2.516 19.1891 2.04791 19.9999C1.57981 20.8107 1.33337 21.7304 1.33337 22.6666L1.33337 25.3333" fill-rule="nonzero" stroke="rgb(15,44,89)" stroke-linecap="round" stroke-linejoin="round" stroke-width="2.66666675" />
		<path id="920" d="M20.0001 1.50391C20.9121 1.74032 21.7451 2.21408 22.4145 2.87697C23.0839 3.53986 23.5658 4.36824 23.8111 5.27782C24.0564 6.18741 24.0564 7.14574 23.8111 8.05532C23.5658 8.96491 23.0839 9.79328 22.4145 10.4562C21.7451 11.1191 20.9121 11.5928 20.0001 11.8292" fill-rule="nonzero" stroke="rgb(15,44,89)" stroke-linecap="round" stroke-linejoin="round" stroke-width="2.66666675" />
		<path id="921" d="M28.0001 25.3333L28.0001 22.6666C27.9995 21.8828 27.8262 21.1087 27.4924 20.3995C27.1587 19.6903 26.6727 19.0634 26.0691 18.5634C25.4655 18.0634 24.759 17.7025 24.0001 17.5066" fill-rule="nonzero" stroke="rgb(15,44,89)" stroke-linecap="round" stroke-linejoin="round" stroke-width="2.66666675" />
		<circle id="922" cx="10.666708" cy="6.66658545" r="5.33333349" stroke="rgb(15,44,89)" stroke-linecap="round" stroke-linejoin="round" stroke-width="2.66666675" />
		<rect id="path.[object SVGAnimatedString]" width="18.670000" height="8.000000" x="1.666748" y="17.333252" />
		<rect id="path.[object SVGAnimatedString]" width="3.990000" height="10.000000" x="19.666748" y="1.333252" />
		<rect id="path.[object SVGAnimatedString]" width="4.000000" height="8.000000" x="23.666748" y="17.333252" />
		<rect id="circle.[object SVGAnimatedString]" width="10.670000" height="11.000000" x="5.666748" y="1.333252" />
	</g>
</svg>
