<svg viewBox="0 0 24 29.3389" xmlns="http://www.w3.org/2000/svg" xmlns:xlink="http://www.w3.org/1999/xlink" width="24.000000" height="29.338867" fill="none" customFrame="#000000">
	<g id="Сочетание 8">
		<path id="910" d="M12.4533 27.9351C12.3092 27.9839 12.1577 28.0077 12.0055 28.0055C11.8533 28.0032 11.7026 27.9749 11.56 27.9217C5.99998 26.0017 1.33331 22.6684 1.33331 16.0017L1.33331 6.66841C1.33331 6.43436 1.39492 6.20443 1.51195 6.00174C1.62897 5.79905 1.79729 5.63073 1.99998 5.51371C2.20267 5.39668 2.4326 5.33507 2.66665 5.33507C5.33331 5.33507 8.66665 3.73507 10.9866 1.70841C11.1739 1.54845 11.3963 1.43509 11.6357 1.3776C11.8752 1.3201 12.1248 1.3201 12.3642 1.3776C12.6037 1.43509 12.8261 1.54845 13.0133 1.70841C15.3466 3.74841 18.6666 5.33507 21.3333 5.33507C21.5674 5.33507 21.7973 5.39668 22 5.51371C22.2027 5.63073 22.371 5.79905 22.488 6.00174C22.605 6.20443 22.6666 6.43436 22.6666 6.66841L22.6666 16.0017C22.6666 22.6684 18 26.0017 12.4533 27.9351Z" fill-rule="nonzero" stroke="rgb(15,44,89)" stroke-linecap="round" stroke-linejoin="round" stroke-width="2.66666675" />
		<path id="911" d="M8 14.6686L10.6667 17.3353L16 12.002" fill-rule="nonzero" stroke="rgb(15,44,89)" stroke-linecap="round" stroke-linejoin="round" stroke-width="2.66666675" />
		<rect id="path.[object SVGAnimatedString]" width="21.330000" height="27.000000" x="1.000000" y="1.668457" />
		<rect id="path.[object SVGAnimatedString]" width="8.000000" height="5.000000" x="8.000000" y="11.668457" />
	</g>
</svg>
