<svg viewBox="0 0 29.3774 26.6667" xmlns="http://www.w3.org/2000/svg" xmlns:xlink="http://www.w3.org/1999/xlink" width="29.377441" height="26.666748" fill="none" customFrame="#000000">
	<g id="Сочетание 12">
		<path id="981" d="M14.6887 1.33337L14.6887 25.3334" stroke="rgb(15,44,89)" stroke-linecap="round" stroke-linejoin="round" stroke-width="2.66666675" />
		<path id="982" d="M24.022 6.66675L24.022 8.00008L28.022 18.6667C27.2564 19.241 26.3761 19.6436 25.441 19.8473C24.506 20.051 23.538 20.051 22.6029 19.8473C21.6678 19.6436 20.7876 19.241 20.022 18.6667L24.022 8.00008" fill-rule="nonzero" stroke="rgb(15,44,89)" stroke-linecap="round" stroke-linejoin="round" stroke-width="2.66666675" />
		<path id="983" d="M2.68872 6.66667L4.02205 6.66667C7.74258 6.66667 11.4059 5.75083 14.6887 4C17.9715 5.75083 21.6349 6.66667 25.3554 6.66667L26.6887 6.66667" fill-rule="nonzero" stroke="rgb(15,44,89)" stroke-linecap="round" stroke-linejoin="round" stroke-width="2.66666675" />
		<path id="984" d="M5.35547 6.66675L5.35547 8.00008L9.35547 18.6667C8.58986 19.241 7.70961 19.6436 6.77453 19.8473C5.83946 20.051 4.87148 20.051 3.93641 19.8473C3.00133 19.6436 2.12108 19.241 1.35547 18.6667L5.35547 8.00008" fill-rule="nonzero" stroke="rgb(15,44,89)" stroke-linecap="round" stroke-linejoin="round" stroke-width="2.66666675" />
		<path id="985" d="M8.02197 25.3334L21.3553 25.3334" stroke="rgb(15,44,89)" stroke-linecap="round" stroke-linejoin="round" stroke-width="2.66666675" />
		<rect id="path.[object SVGAnimatedString]" width="8.000000" height="13.000000" x="19.688721" y="6.333374" />
		<rect id="path.[object SVGAnimatedString]" width="24.000000" height="3.000000" x="2.688721" y="4.333374" />
		<rect id="path.[object SVGAnimatedString]" width="8.000000" height="13.000000" x="1.688721" y="6.333374" />
	</g>
</svg>
