<svg viewBox="0 0 195.437 32.2241" xmlns="http://www.w3.org/2000/svg" xmlns:xlink="http://www.w3.org/1999/xlink" width="195.436768" height="32.224060" fill="none" customFrame="#000000">
	<path id="Vector" d="M1.13562 1.01424L4.06779 4.32097L4.06779 28.5231L1.89459 31.6898L15.204 31.7103L12.8051 28.7964L12.556 20.0803L25.3892 20.15C29.279 18.855 33.2777 16.094 33.4698 10.5121C33.4084 5.10281 30.1059 1.63335 26.2716 0.943093L1.13562 1.01424ZM12.0805 2.56202L12.0805 18.1102L21.9267 18.1814C24.1671 16.3747 25.8655 14.9912 25.7975 10.6536C25.7654 7.11681 25.0188 4.0326 21.7229 2.56278L12.0805 2.56202ZM39.6293 0.837889L42.5614 4.14537L42.5614 28.3475L40.3882 31.5158L53.6969 31.5347L51.298 28.6208L51.0489 19.9047L51.1022 19.9047L64.8522 31.6331L76.2631 31.54L65.8485 22.5318L57.1543 22.5318L54.0899 19.9214L63.8821 19.9744C67.7719 18.6794 71.7699 15.9184 71.9627 10.3365C71.9021 4.92797 68.5996 1.45776 64.7645 0.768258L39.6293 0.837889ZM50.5734 2.38567L50.5734 17.9339L60.4196 18.005C62.6607 16.1984 64.3584 14.8149 64.2904 10.4765C64.2583 6.94046 63.5117 3.8555 60.2158 2.38567L50.5734 2.38567ZM87.2488 0.803074L98.7248 0.803074L113.663 28.5231C114.31 30.6635 116.243 30.3994 117.534 31.3379L103.07 31.3379L105.244 30.6582L105.108 28.5943L101.373 22.6136L88.6747 22.6847L85.9588 28.4543C85.8682 29.1105 85.1662 29.6085 85.6871 30.4236L86.7061 31.4083L80.459 31.2675L83.1757 30.4236L93.428 8.82429L93.428 7.34614L89.0962 1.5675L87.2488 0.803074ZM89.4775 20.71L94.7516 10.7248L100.243 20.654L89.4775 20.71ZM164.85 0.863623L176.326 0.863623L191.265 28.5837C191.911 30.7241 193.845 30.4599 195.136 31.3984L180.671 31.3984L182.844 30.7173L182.709 28.6533L178.974 22.6741L166.276 22.7452L163.56 28.5133C163.469 29.171 162.768 29.669 163.288 30.4842L164.307 31.4688L158.061 31.3281L160.777 30.4842L171.03 8.88484L171.03 7.40593L166.698 1.62805L164.85 0.863623ZM167.079 20.7714L172.353 10.7861L177.845 20.7138L167.079 20.7714ZM121.503 0.514709L141.946 0.627482C148.529 2.16921 152.718 6.19117 154.017 13.2073L153.962 18.6794C152.762 24.9311 148.829 29.2444 141.892 31.428L121.394 31.4855L121.391 30.8232C124.507 30.5879 124.756 30.2321 124.764 28.3824L124.764 3.44755C124.729 2.0799 124.456 1.22843 121.448 1.13458L121.503 0.514709ZM133.123 2.6483L133.104 29.6259C135.8 29.635 138.139 29.8878 139.46 29.2134C142.455 27.8457 143.845 25.7454 143.972 23.7723L143.901 7.84264C143.902 5.29429 141.136 3.49523 139.539 3.02673C138.397 2.60365 136.119 2.58624 133.123 2.6483Z" fill="rgb(255,255,255)" fill-rule="evenodd" />
	<path id="Vector" d="M4.06779 4.32097L4.06779 28.5231L1.89459 31.6898L15.204 31.7103L12.8051 28.7964L12.556 20.0803L25.3892 20.15C29.279 18.855 33.2777 16.094 33.4698 10.5121C33.4084 5.10281 30.1059 1.63335 26.2716 0.943093L1.13562 1.01424L4.06779 4.32097ZM12.0805 18.1102L21.9267 18.1814C24.1671 16.3747 25.8655 14.9912 25.7975 10.6536C25.7654 7.11681 25.0188 4.0326 21.7229 2.56278L12.0805 2.56202L12.0805 18.1102ZM42.5614 4.14537L42.5614 28.3475L40.3882 31.5158L53.6969 31.5347L51.298 28.6208L51.0489 19.9047L51.1022 19.9047L64.8522 31.6331L76.2631 31.54L65.8485 22.5318L57.1543 22.5318L54.0899 19.9214L63.8821 19.9744C67.7719 18.6794 71.7699 15.9184 71.9627 10.3365C71.9021 4.92797 68.5996 1.45776 64.7645 0.768258L39.6293 0.837889L42.5614 4.14537ZM50.5734 17.9339L60.4196 18.005C62.6607 16.1984 64.3584 14.8149 64.2904 10.4765C64.2583 6.94046 63.5117 3.8555 60.2158 2.38567L50.5734 2.38567L50.5734 17.9339ZM98.7248 0.803074L113.663 28.5231C114.31 30.6635 116.243 30.3994 117.534 31.3379L103.07 31.3379L105.244 30.6582L105.108 28.5943L101.373 22.6136L88.6747 22.6847L85.9588 28.4543C85.8682 29.1105 85.1662 29.6085 85.6871 30.4236L86.7061 31.4083L80.459 31.2675L83.1757 30.4236L93.428 8.82429L93.428 7.34614L89.0962 1.5675L87.2488 0.803074L98.7248 0.803074ZM94.7516 10.7248L100.243 20.654L89.4775 20.71L94.7516 10.7248ZM176.326 0.863623L191.265 28.5837C191.911 30.7241 193.845 30.4599 195.136 31.3984L180.671 31.3984L182.844 30.7173L182.709 28.6533L178.974 22.6741L166.276 22.7452L163.56 28.5133C163.469 29.171 162.768 29.669 163.288 30.4842L164.307 31.4688L158.061 31.3281L160.777 30.4842L171.03 8.88484L171.03 7.40593L166.698 1.62805L164.85 0.863623L176.326 0.863623ZM172.353 10.7861L177.845 20.7138L167.079 20.7714L172.353 10.7861ZM141.946 0.627482C148.529 2.16921 152.718 6.19117 154.017 13.2073L153.962 18.6794C152.762 24.9311 148.829 29.2444 141.892 31.428L121.394 31.4855L121.391 30.8232C124.507 30.5879 124.756 30.2321 124.764 28.3824L124.764 3.44755C124.729 2.0799 124.456 1.22843 121.448 1.13458L121.503 0.514709L141.946 0.627482ZM133.104 29.6259C135.8 29.635 138.139 29.8878 139.46 29.2134C142.455 27.8457 143.845 25.7454 143.972 23.7723L143.901 7.84264C143.902 5.29429 141.136 3.49523 139.539 3.02673C138.397 2.60365 136.119 2.58624 133.123 2.6483L133.104 29.6259Z" fill-rule="evenodd" stroke="rgb(255,255,255)" stroke-width="1.02418506" />
</svg>
