<svg viewBox="0 0 79 54" xmlns="http://www.w3.org/2000/svg" xmlns:xlink="http://www.w3.org/1999/xlink" width="79.000000" height="54.000000" fill="none" customFrame="#000000">
	<path id="Vector 51" d="M52.5 35.5L22.1622 35.5L1.5 35.5L1.5 1.5L22.1622 1.5L52.5 1.5L52.5 35.5ZM22.1622 1.5L22.1622 35.5M6.61873 18.4061L16.4816 18.4061M6.61873 25.9825L16.4816 25.9825M6.61873 10.5792L16.4816 10.5792M42.451 8.45028L32.6493 27.5479M43.0741 28.1114C40.7642 28.1114 38.8917 26.2051 38.8917 23.8536C38.8917 21.5021 40.7642 19.5958 43.0741 19.5958C45.3839 19.5958 47.2564 21.5021 47.2564 23.8536C47.2564 26.2051 45.3839 28.1114 43.0741 28.1114ZM31.8378 16.5902C29.528 16.5902 27.6554 14.6839 27.6554 12.3324C27.6554 9.98088 29.528 8.07459 31.8378 8.07459C34.1477 8.07459 36.0202 9.98088 36.0202 12.3324C36.0202 14.6839 34.1477 16.5902 31.8378 16.5902Z" opacity="0.899999976" fill-rule="evenodd" stroke="rgb(197,53,140)" stroke-linecap="round" stroke-linejoin="round" stroke-width="3" />
</svg>
