<svg viewBox="0 0 77 79" xmlns="http://www.w3.org/2000/svg" xmlns:xlink="http://www.w3.org/1999/xlink" width="77.000000" height="79.000000" fill="none" customFrame="#000000">
	<path id="Vector 52" d="M43.0178 35.8242L43.0178 8.84853C43.0178 8.84853 45.904 7.19814 47.1621 5.59448C48.3663 4.05953 48.9953 1.5 48.9953 1.5L69.7079 1.5C69.7079 1.5 70.9245 4.06535 72.1621 5.59448C73.4443 7.17876 75.8243 8.84853 75.8243 8.84853L75.8243 37.2195L59.3284 45.7307L43.0178 35.8242L41.7204 35.8242L1.5 35.8242L1.5 77.3108L59.3284 77.3108L59.3284 45.7307M54.6947 22.5224L58.031 25.499L65.2595 19.4527M21.2395 43.8238L21.2395 54.9862L9.93331 54.9862L9.93331 43.8238L21.2395 43.8238ZM14.7523 63.916L14.7523 68.381L8.82122 68.381L8.82122 63.916L14.7523 63.916ZM52.0072 63.916L52.0072 68.381L46.0761 68.381L46.0761 63.916L52.0072 63.916ZM39.5889 63.916L39.5889 68.381L33.6578 68.381L33.6578 63.916L39.5889 63.916ZM27.1706 63.916L27.1706 68.381L21.2395 68.381L21.2395 63.916L27.1706 63.916Z" fill-rule="evenodd" stroke="rgb(197,53,140)" stroke-linecap="round" stroke-linejoin="round" stroke-width="3" />
</svg>
