<svg viewBox="0 0 36 36" xmlns="http://www.w3.org/2000/svg" xmlns:xlink="http://www.w3.org/1999/xlink" width="36.000000" height="36.000000" fill="none" clip-path="url(#clipPath_3)" customFrame="url(#clipPath_3)">
	<defs>
		<clipPath id="clipPath_3">
			<rect width="36.000000" height="36.000000" x="0.000000" y="0.000000" rx="18.000000" fill="rgb(255,255,255)" transform="matrix(-4.37114e-08,1,-1,-4.37114e-08,36,0)" />
		</clipPath>
	</defs>
	<rect id="arrow аккордеон" width="36.000000" height="36.000000" x="0.000000" y="0.000000" rx="18.000000" fill="rgb(255,248.793,243.738)" transform="matrix(-4.37114e-08,1,-1,-4.37114e-08,36,0)" />
	<rect id="arrow аккордеон" width="34.500000" height="34.500000" x="0.750000" y="0.750000" rx="17.250000" stroke="rgb(255,165.055,91.8)" stroke-width="1.5" transform="matrix(-4.37114e-08,1,-1,-4.37114e-08,36,0)" />
	<path id="Vector" d="M12.96 7.992L6.984 2.016L1.008 7.992L0 6.984L6.984 0L13.968 6.984L12.96 7.992Z" fill="rgb(255,165.055,91.8)" fill-rule="nonzero" transform="matrix(-4.37114e-08,1,-1,-4.37114e-08,24.7681,11.0156)" />
	<path id="Vector" d="M0 0L1.44 0L1.44 12.24L0 12.24L0 0Z" fill="rgb(255,165.055,91.8)" fill-rule="nonzero" transform="matrix(-4.37114e-08,1,-1,-4.37114e-08,23.7598,17.2803)" />
</svg>
