<svg viewBox="0 0 36 36" xmlns="http://www.w3.org/2000/svg" xmlns:xlink="http://www.w3.org/1999/xlink" width="36.000000" height="36.000000" fill="none" clip-path="url(#clipPath_4)" customFrame="url(#clipPath_4)">
	<defs>
		<clipPath id="clipPath_4">
			<rect width="36.000000" height="36.000000" x="0.000000" y="0.000000" rx="18.000000" fill="rgb(255,255,255)" transform="matrix(-4.37114e-08,-1,1,-4.37114e-08,0,36)" />
		</clipPath>
	</defs>
	<rect id="arrow слайдер" width="36.000000" height="36.000000" x="0.000000" y="0.000000" rx="18.000000" fill="rgb(255,255,255)" fill-opacity="0" transform="matrix(-4.37114e-08,-1,1,-4.37114e-08,0,36)" />
	<rect id="arrow слайдер" width="34.500000" height="34.500000" x="0.750000" y="0.750000" rx="17.250000" stroke="rgb(224.673,217.179,225.25)" stroke-width="1.5" transform="matrix(-4.37114e-08,-1,1,-4.37114e-08,0,36)" />
	<path id="Vector" d="M12.96 7.992L6.984 2.016L1.008 7.992L0 6.984L6.984 0L13.968 6.984L12.96 7.992Z" fill="rgb(224.673,217.179,225.25)" fill-rule="nonzero" transform="matrix(-4.37114e-08,-1,1,-4.37114e-08,11.2324,24.9844)" />
	<path id="Vector" d="M0 0L1.44 0L1.44 12.24L0 12.24L0 0Z" fill="rgb(224.673,217.179,225.25)" fill-rule="nonzero" transform="matrix(-4.37114e-08,-1,1,-4.37114e-08,12.2402,18.7197)" />
</svg>
