<svg viewBox="0 0 35.0107 22.3232" xmlns="http://www.w3.org/2000/svg" xmlns:xlink="http://www.w3.org/1999/xlink" width="35.010742" height="22.323242" fill="none" customFrame="#000000">
	<path id="Vector" d="M34.7325 18.1715C33.9165 16.5281 32.8413 15.0269 31.548 13.7255C31.1155 13.2367 30.6626 12.7662 30.1905 12.3155L30.1335 12.26C29.9582 12.0898 29.7852 11.9172 29.6145 11.7425C31.3824 9.28411 32.8952 6.65201 34.1295 3.88697L34.179 3.77597L34.2135 3.65897C34.377 3.11447 34.563 2.07947 33.903 1.14347C33.219 0.177473 32.1255 0.00347236 31.392 0.00347236L28.0215 0.00347236C27.3158 -0.028689 26.6179 0.16322 26.0279 0.551735C25.4378 0.94025 24.9858 1.50546 24.7365 2.16647C24.0111 3.89393 23.103 5.5388 22.0275 7.07297L22.0275 3.12347C22.0275 2.61347 21.9795 1.75847 21.432 1.03847C20.778 0.174472 19.8315 0.00347236 19.1745 0.00347236L13.8255 0.00347236C13.1275 -0.0125877 12.4501 0.240414 11.9335 0.710084C11.4169 1.17975 11.1008 1.83011 11.0505 2.52647L11.046 2.59397L11.046 2.66147C11.046 3.38897 11.334 3.92597 11.565 4.26347C11.6685 4.41497 11.778 4.55297 11.8485 4.63997L11.8635 4.65947C11.9385 4.75247 11.988 4.81397 12.0375 4.88297C12.1695 5.05997 12.357 5.33597 12.411 6.04697L12.411 8.25647C11.3373 6.45845 10.4569 4.55183 9.7845 2.56847L9.7725 2.53547L9.7605 2.50397C9.5775 2.02547 9.285 1.32947 8.6985 0.798473C8.0145 0.175973 7.2045 0.00347236 6.468 0.00347236L3.048 0.00347236C2.3025 0.00347236 1.404 0.177473 0.7335 0.883973C0.075 1.57997 0 2.41397 0 2.85497L0 3.05597L0.042 3.25097C0.988951 7.64713 2.94035 11.7645 5.7435 15.281C7.02506 17.3019 8.76493 18.9924 10.822 20.2152C12.879 21.438 15.1953 22.1587 17.583 22.319L17.6445 22.3235L17.7075 22.3235C18.7965 22.3235 19.932 22.229 20.7855 21.6605C21.936 20.8925 22.0275 19.715 22.0275 19.127L22.0275 17.42C22.323 17.66 22.689 17.981 23.1375 18.413C23.6805 18.956 24.1125 19.427 24.483 19.838L24.681 20.057C24.969 20.378 25.2525 20.6945 25.5105 20.954C25.8345 21.2795 26.235 21.638 26.736 21.9035C27.2805 22.19 27.852 22.3205 28.458 22.3205L31.8795 22.3205C32.601 22.3205 33.6345 22.1495 34.362 21.3065C35.154 20.3885 35.094 19.262 34.845 18.4535L34.8 18.308L34.7325 18.1715ZM26.1525 18.3305C25.6876 17.8108 25.2089 17.3036 24.717 16.8095L24.7125 16.805C22.677 14.843 21.7275 14.5025 21.0555 14.5025C20.697 14.5025 20.3025 14.5415 20.046 14.8625C19.9305 15.0156 19.8548 15.1949 19.8255 15.3845C19.7893 15.6046 19.7733 15.8275 19.7775 16.0505L19.7775 19.127C19.7775 19.5095 19.7145 19.67 19.5375 19.787C19.302 19.9445 18.7995 20.072 17.721 20.072C15.6723 19.9326 13.686 19.3089 11.9253 18.2523C10.1646 17.1957 8.67978 15.7362 7.593 13.994L7.581 13.9745L7.566 13.9565C4.95467 10.7062 3.13477 6.89334 2.25 2.81897C2.256 2.62397 2.298 2.50547 2.367 2.43347C2.4375 2.35847 2.61 2.25347 3.048 2.25347L6.468 2.25347C6.8475 2.25347 7.0455 2.33747 7.188 2.46497C7.347 2.61197 7.488 2.85947 7.656 3.30047C8.496 5.76947 9.63 8.07947 10.7055 9.77597C11.2425 10.625 11.7705 11.3315 12.2475 11.831C12.486 12.08 12.7185 12.287 12.942 12.434C13.1565 12.575 13.401 12.6875 13.653 12.6875C13.785 12.6875 13.9395 12.6725 14.088 12.608C14.2484 12.5371 14.3804 12.4146 14.463 12.26C14.6175 11.978 14.661 11.5625 14.661 11.018L14.661 5.95847C14.5815 4.73147 14.211 4.03997 13.851 3.54947C13.7781 3.45136 13.7031 3.35484 13.626 3.25997L13.6065 3.23597C13.5425 3.15828 13.4815 3.07822 13.4235 2.99597C13.3497 2.90424 13.3052 2.79237 13.296 2.67497C13.3078 2.55578 13.3646 2.44559 13.455 2.36695C13.5453 2.28832 13.6623 2.24718 13.782 2.25197L19.1745 2.25197C19.4835 2.25197 19.587 2.32697 19.6395 2.39747C19.7145 2.49497 19.7775 2.69747 19.7775 3.12347L19.7775 9.91547C19.7775 10.7225 20.1495 11.2685 20.6895 11.2685C21.3105 11.2685 21.759 10.892 22.542 10.109L22.5555 10.094L22.5675 10.0805C24.324 7.9389 25.759 5.55284 26.8275 2.99747L26.8335 2.97947C26.9138 2.7537 27.0657 2.56039 27.2661 2.42904C27.4666 2.29769 27.7044 2.2355 27.9435 2.25197L31.3935 2.25197C31.8615 2.25197 32.0145 2.37197 32.0655 2.44247C32.118 2.51747 32.1555 2.67797 32.0655 2.99297C30.8334 5.74751 29.3102 8.36237 27.522 10.793L27.51 10.811C27.3375 11.0765 27.147 11.3705 27.12 11.7065C27.09 12.0695 27.246 12.398 27.5205 12.752C27.72 13.046 28.1325 13.4495 28.551 13.859L28.59 13.898C29.028 14.327 29.5035 14.792 29.8845 15.242L29.895 15.2525L29.9055 15.2645C31.0416 16.3977 31.9864 17.7077 32.703 19.1435C32.817 19.5335 32.748 19.7345 32.658 19.838C32.5545 19.958 32.322 20.0705 31.881 20.0705L28.458 20.0705C28.2247 20.0761 27.9939 20.0219 27.7875 19.913C27.5346 19.7659 27.3051 19.5818 27.1065 19.367C26.892 19.1525 26.6595 18.893 26.3745 18.5765L26.154 18.3305L26.1525 18.3305Z" fill="rgb(255,248.793,243.738)" fill-rule="evenodd" />
</svg>
