<svg viewBox="0 0 31.5 22.8447" xmlns="http://www.w3.org/2000/svg" xmlns:xlink="http://www.w3.org/1999/xlink" width="31.500000" height="22.844727" fill="none" customFrame="#000000">
	<path id="Vector" d="M31.5 11.3238C31.5 11.2465 31.5 11.1586 31.4965 11.0566C31.493 10.7719 31.4859 10.452 31.4789 10.1109C31.4508 9.13008 31.4016 8.15273 31.3242 7.23164C31.2188 5.9625 31.0641 4.9043 30.8531 4.10977C30.6305 3.2806 30.1942 2.52439 29.5877 1.91671C28.9813 1.30902 28.226 0.871158 27.3973 0.646875C26.4023 0.379687 24.4547 0.214453 21.7125 0.1125C20.4082 0.0632811 19.0125 0.0316404 17.6168 0.0140623C17.1281 0.00703104 16.6746 0.00351563 16.2668 0L15.2332 0C14.8254 0.00351563 14.3719 0.00703104 13.8832 0.0140623C12.4875 0.0316404 11.0918 0.0632811 9.7875 0.1125C7.04531 0.217969 5.09414 0.383203 4.10273 0.646875C3.27375 0.870607 2.51813 1.30829 1.9116 1.91606C1.30507 2.52382 0.868922 3.28033 0.646875 4.10977C0.432422 4.9043 0.28125 5.9625 0.175781 7.23164C0.0984375 8.15273 0.0492187 9.13008 0.0210937 10.1109C0.0105468 10.452 0.0070312 10.7719 0.00351557 11.0566C0.00351557 11.1586 2.498e-16 11.2465 2.498e-16 11.3238L2.498e-16 11.5207C2.498e-16 11.598 -5.36966e-08 11.6859 0.00351557 11.7879C0.0070312 12.0727 0.0140624 12.3926 0.0210937 12.7336C0.0492187 13.7145 0.0984375 14.6918 0.175781 15.6129C0.28125 16.882 0.435938 17.9402 0.646875 18.7348C1.09688 20.4188 2.41875 21.7477 4.10273 22.1977C5.09414 22.4648 7.04531 22.6301 9.7875 22.732C11.0918 22.7812 12.4875 22.8129 13.8832 22.8305C14.3719 22.8375 14.8254 22.841 15.2332 22.8445L16.2668 22.8445C16.6746 22.841 17.1281 22.8375 17.6168 22.8305C19.0125 22.8129 20.4082 22.7812 21.7125 22.732C24.4547 22.6266 26.4059 22.4613 27.3973 22.1977C29.0812 21.7477 30.4031 20.4223 30.8531 18.7348C31.0676 17.9402 31.2188 16.882 31.3242 15.6129C31.4016 14.6918 31.4508 13.7145 31.4789 12.7336C31.4895 12.3926 31.493 12.0727 31.4965 11.7879C31.4965 11.6859 31.5 11.598 31.5 11.5207L31.5 11.3238ZM28.9688 11.5066C28.9688 11.5805 28.9688 11.6613 28.9652 11.7562C28.9617 12.0305 28.9547 12.3328 28.9477 12.6598C28.923 13.5949 28.8738 14.5301 28.8 15.3984C28.7051 16.5305 28.5715 17.4586 28.4062 18.0809C28.1883 18.893 27.5484 19.5363 26.7398 19.7508C26.0016 19.9477 24.1418 20.1059 21.6141 20.2008C20.3344 20.25 18.9562 20.2816 17.5816 20.2992C17.1 20.3063 16.6535 20.3098 16.2527 20.3098L15.2473 20.3098L13.9184 20.2992C12.5437 20.2816 11.1691 20.25 9.88594 20.2008C7.3582 20.1023 5.49492 19.9477 4.76016 19.7508C3.95156 19.5328 3.31172 18.893 3.09375 18.0809C2.92852 17.4586 2.79492 16.5305 2.7 15.3984C2.62617 14.5301 2.58047 13.5949 2.55234 12.6598C2.5418 12.3328 2.53828 12.027 2.53477 11.7562C2.53477 11.6613 2.53125 11.577 2.53125 11.5066L2.53125 11.3379C2.53125 11.2641 2.53125 11.1832 2.53477 11.0883C2.53828 10.8141 2.54531 10.5117 2.55234 10.1848C2.57695 9.24961 2.62617 8.31445 2.7 7.44609C2.79492 6.31406 2.92852 5.38594 3.09375 4.76367C3.31172 3.95156 3.95156 3.3082 4.76016 3.09375C5.49844 2.89687 7.3582 2.73867 9.88594 2.64375C11.1656 2.59453 12.5437 2.56289 13.9184 2.54531C14.4 2.53828 14.8465 2.53477 15.2473 2.53477L16.2527 2.53477L17.5816 2.54531C18.9562 2.56289 20.3309 2.59453 21.6141 2.64375C24.1418 2.74219 26.0051 2.89687 26.7398 3.09375C27.5484 3.31172 28.1883 3.95156 28.4062 4.76367C28.5715 5.38594 28.7051 6.31406 28.8 7.44609C28.8738 8.31445 28.9195 9.24961 28.9477 10.1848C28.9582 10.5117 28.9617 10.8176 28.9652 11.0883C28.9652 11.1832 28.9688 11.2676 28.9688 11.3379L28.9688 11.5066ZM12.6211 16.1332L20.7773 11.3871L12.6211 6.71133L12.6211 16.1332Z" fill="rgb(255,248.793,243.738)" fill-rule="nonzero" />
</svg>
